<svg width="396" height="25" viewBox="0 0 396 25" fill="none" xmlns="http://www.w3.org/2000/svg">
<path d="M10.1203 21.9944C12.3309 16.5891 17.0522 10.0437 30.2159 12.2255C37.3379 13.4071 43.7296 15.6459 50.6216 17.1333C57.1434 18.5429 64.0553 19.5949 71.1273 19.9058C78.1992 20.2168 85.4813 19.512 91.9431 17.8951C97.9147 16.4077 103.426 14.2311 109.918 13.3501C121.641 11.7539 133.635 14.5887 144.278 16.8327C154.921 19.0767 167.594 21.7301 179.888 20.7765C193.101 19.7452 203.634 15.4231 216.018 13.205C229.341 10.8211 241.445 14.0549 254.048 16.0709C259.96 17.0141 266.342 17.7759 272.563 17.4649C279.365 17.1229 285.247 15.5941 291.018 13.7958C297.53 11.7746 303.692 9.80531 311.554 10.0022C320.547 10.2251 329.219 12.3499 337.942 13.3915C355.116 15.4334 374.112 16.5217 391.126 13.5988C397.388 12.5261 395.888 5.38471 389.266 5.11004C372.771 4.42077 356.407 4.9442 340.082 3.1459C324.558 1.4357 309.784 -2.23345 294.449 1.88139C288.558 3.46203 283.256 5.65937 276.975 6.84097C270.683 8.02774 263.931 7.47322 257.679 6.51966C245.006 4.58661 232.482 1.34242 218.948 2.79868C205.415 4.25494 194.762 9.17824 181.498 10.8262C168.985 12.381 156.441 9.5721 144.958 7.31775C133.475 5.0634 121.001 2.74685 108.518 4.2653C101.686 5.09967 96.0242 7.10009 89.8825 8.75328C82.9706 10.6138 75.9186 11.2512 68.1864 10.676C59.9241 10.0644 52.0019 8.24022 44.5999 6.30718C37.1978 4.37413 29.2656 2.07314 20.6232 3.0578C6.13917 4.70063 1.98802 13.4486 0.237529 19.9888C-0.202594 21.616 0.537613 24.2124 4.01858 24.8654C7.49955 25.5184 9.54012 23.4143 10.1303 21.9892L10.1203 21.9944Z" fill="#FF4081" fill-opacity="0.5"/>
</svg>
