<svg width="533" height="23" viewBox="0 0 533 23" fill="none" xmlns="http://www.w3.org/2000/svg">
<path d="M5.13758 20.8267C32.1984 13.0295 63.1097 7.99461 95.4185 7.65644C111.31 7.49124 127.345 8.35396 142.747 10.3996C160.418 12.7457 176.857 16.7576 194.418 19.2608C263.779 29.1523 331.089 11.9322 399.554 10.2905C421.184 9.77219 442.796 11.011 464.343 12.1135C474.95 12.6564 485.566 13.1685 496.211 13.4063C507.273 13.654 518.621 13.6659 529.029 11.891C533.857 11.0678 532.886 6.28446 527.667 5.92906C517.936 5.27124 508.085 5.43617 498.289 5.269C488.493 5.10183 478.634 4.68213 468.825 4.2051C449.708 3.27774 430.578 2.11019 411.373 2.07961C375.596 2.02616 341.035 6.48481 306.587 10.0935C273.507 13.5597 238.185 16.5478 204.221 12.7003C185.912 10.6274 169.017 6.52754 151.108 3.84891C135.578 1.5265 119.307 0.277094 103.111 0.128152C66.6382 -0.210359 29.6126 4.7153 1.76638 15.4972C-1.39283 16.7204 0.351287 22.208 5.13758 20.8267Z" fill="#3F51B5" fill-opacity="0.5"/>
</svg>
